<svg width="24" height="24" viewBox="0 0 24 24" fill="none" xmlns="http://www.w3.org/2000/svg">
<path fill-rule="evenodd" clip-rule="evenodd" d="M3.05273 6.47958C3.05273 3.97846 3.07952 3.14502 6.3873 3.14502C9.69508 3.14502 9.72186 3.97846 9.72186 6.47958C9.72186 8.98071 9.73241 9.81415 6.3873 9.81415C3.04218 9.81415 3.05273 8.98071 3.05273 6.47958Z" stroke="white" stroke-width="1.5" stroke-linecap="round" stroke-linejoin="round"/>
<path fill-rule="evenodd" clip-rule="evenodd" d="M13.5332 6.47958C13.5332 3.97846 13.56 3.14502 16.8678 3.14502C20.1755 3.14502 20.2023 3.97846 20.2023 6.47958C20.2023 8.98071 20.2129 9.81415 16.8678 9.81415C13.5227 9.81415 13.5332 8.98071 13.5332 6.47958Z" stroke="white" stroke-width="1.5" stroke-linecap="round" stroke-linejoin="round"/>
<path fill-rule="evenodd" clip-rule="evenodd" d="M3.05273 16.9596C3.05273 14.4584 3.07952 13.625 6.3873 13.625C9.69508 13.625 9.72186 14.4584 9.72186 16.9596C9.72186 19.4607 9.73241 20.2941 6.3873 20.2941C3.04218 20.2941 3.05273 19.4607 3.05273 16.9596Z" stroke="white" stroke-width="1.5" stroke-linecap="round" stroke-linejoin="round"/>
<path fill-rule="evenodd" clip-rule="evenodd" d="M13.5332 16.9596C13.5332 14.4584 13.56 13.625 16.8678 13.625C20.1755 13.625 20.2023 14.4584 20.2023 16.9596C20.2023 19.4607 20.2129 20.2941 16.8678 20.2941C13.5227 20.2941 13.5332 19.4607 13.5332 16.9596Z" stroke="white" stroke-width="1.5" stroke-linecap="round" stroke-linejoin="round"/>
</svg>
