<svg width="29" height="28" viewBox="0 0 29 28" fill="none" xmlns="http://www.w3.org/2000/svg">
<path d="M11.351 23.7498V20.254C11.351 19.3616 12.0797 18.6381 12.9787 18.6381H16.2646C16.6963 18.6381 17.1103 18.8084 17.4156 19.1114C17.7208 19.4144 17.8923 19.8254 17.8923 20.254V23.7498C17.8896 24.1208 18.0361 24.4775 18.2994 24.7408C18.5627 25.0041 18.921 25.1522 19.2947 25.1522H21.5366C22.5836 25.1549 23.5887 24.7439 24.33 24.0098C25.0713 23.2758 25.4879 22.2791 25.4879 21.2397V11.2806C25.4879 10.441 25.113 9.64458 24.4643 9.1059L16.8379 3.05933C15.5113 1.99916 13.6105 2.03339 12.3235 3.14063L4.87119 9.1059C4.19177 9.6287 3.78569 10.4275 3.76562 11.2806V21.2295C3.76563 23.396 5.53471 25.1522 7.717 25.1522H9.90765C10.6839 25.1522 11.3147 24.5305 11.3203 23.7599L11.351 23.7498Z" stroke="white" stroke-width="1.5"/>
</svg>
