<svg width="36" height="36" viewBox="0 0 36 36" fill="none" xmlns="http://www.w3.org/2000/svg">
<ellipse cx="18.4453" cy="14.696" rx="12.4278" ry="12.4177" fill="#1DC3C3"/>
<path fill-rule="evenodd" clip-rule="evenodd" d="M18.0518 0.817383C10.5599 0.817383 4.4865 6.88586 4.4865 14.3717C4.4865 16.1912 4.8459 17.9292 5.49828 19.5168C5.04806 20.0376 4.63099 20.7597 4.06949 21.7319L1.23864 26.6311C0.889086 27.2358 0.565873 27.795 0.379527 28.2579C0.197003 28.7113 -0.0328679 29.4975 0.475112 30.2253C0.989527 30.9622 1.81527 31.0059 2.30463 30.9816C2.80011 30.957 3.42998 30.8331 4.10659 30.7L5.3333 30.4589C6.01337 30.3253 6.41686 30.2482 6.71623 30.2276C6.85296 30.2182 6.92637 30.2245 6.96249 30.2306C6.97909 30.2334 6.98689 30.236 6.98888 30.2367C6.99056 30.2373 6.99146 30.2377 6.99344 30.2388C6.99541 30.2399 6.99619 30.2405 6.99755 30.2417C6.99915 30.2431 7.0053 30.2485 7.01601 30.2615C7.03933 30.2897 7.08151 30.3501 7.14174 30.4731C7.27359 30.7424 7.40852 31.1301 7.63271 31.7854L8.03705 32.9673C8.26002 33.6194 8.4676 34.2265 8.69402 34.6675C8.91764 35.1032 9.36838 35.7958 10.2643 35.8725C11.149 35.9482 11.7156 35.3562 12.0173 34.9715C12.3253 34.5788 12.6484 34.0195 12.9978 33.4147L15.7714 28.6144C15.9416 28.32 16.0967 28.0515 16.2359 27.8055C16.8304 27.885 17.4366 27.926 18.0518 27.926C18.5281 27.926 18.9991 27.9015 19.4634 27.8534C19.5955 28.0862 19.7413 28.3386 19.9003 28.6138L22.6744 33.4147C23.0238 34.0195 23.3468 34.5788 23.6549 34.9715C23.9566 35.3562 24.5231 35.9482 25.4078 35.8725C26.3038 35.7958 26.7545 35.1032 26.9781 34.6675C27.2045 34.2265 27.4121 33.6195 27.635 32.9674L28.0394 31.7854C28.2636 31.1301 28.3985 30.7424 28.5304 30.4731C28.5906 30.3501 28.6328 30.2897 28.6561 30.2615C28.6575 30.2598 28.6587 30.2583 28.6599 30.257C28.6683 30.2472 28.6732 30.2429 28.6746 30.2417L28.6765 30.2401L28.6787 30.2388C28.6807 30.2377 28.6816 30.2373 28.6832 30.2367C28.6852 30.236 28.693 30.2334 28.7096 30.2306C28.7458 30.2245 28.8192 30.2182 28.9559 30.2276C29.2553 30.2482 29.6588 30.3253 30.3388 30.4589L31.5656 30.7C32.2422 30.8331 32.872 30.957 33.3675 30.9816C33.8569 31.0059 34.6826 30.9622 35.197 30.2253C35.705 29.4975 35.4751 28.7113 35.2926 28.2579C35.1063 27.795 34.7831 27.2359 34.4336 26.6312L31.5735 21.6814C31.1492 20.9464 30.8054 20.3507 30.4537 19.8714C31.2018 18.1894 31.6171 16.3277 31.6171 14.3717C31.6171 6.88586 25.5437 0.817383 18.0518 0.817383ZM6.81198 14.3717C6.81198 8.16915 11.8442 3.14098 18.0518 3.14098C24.2594 3.14098 29.2916 8.16915 29.2916 14.3717C29.2916 16.2286 28.8415 17.977 28.0454 19.5173C26.4512 22.6015 23.4701 24.8513 19.932 25.4462C19.3214 25.5489 18.6933 25.6024 18.0518 25.6024C17.3017 25.6024 16.5699 25.5292 15.8628 25.3898C12.3976 24.7067 9.5005 22.4292 7.97393 19.3509C7.23045 17.8516 6.81198 16.1622 6.81198 14.3717ZM6.01588 23.0106C6.30983 22.5018 6.53318 22.1175 6.71581 21.8189C8.39275 24.3625 10.9047 26.3089 13.8643 27.2676L11.0239 32.1835C10.821 32.5346 10.6594 32.8128 10.5243 33.034C10.4378 32.7989 10.3369 32.5061 10.2112 32.1388L9.81259 30.9736C9.61602 30.3989 9.43486 29.8691 9.23069 29.4521C9.00529 28.9917 8.69097 28.535 8.15617 28.2265C7.62138 27.918 7.06844 27.8743 6.55669 27.9095C6.09315 27.9413 5.54344 28.0494 4.94701 28.1667L3.73777 28.4044C3.35661 28.4793 3.05236 28.5384 2.8053 28.581C2.92945 28.3536 3.08979 28.0746 3.29265 27.7235L6.01588 23.0106ZM21.873 27.3806C24.8577 26.5067 27.4139 24.6364 29.1582 22.156C29.2989 22.3937 29.4623 22.675 29.6562 23.0106L32.3795 27.7235C32.5823 28.0746 32.7427 28.3536 32.8668 28.581C32.6198 28.5384 32.3155 28.4793 31.9344 28.4044L30.7253 28.1668C30.1288 28.0495 29.579 27.9413 29.1154 27.9095C28.6037 27.8743 28.0507 27.918 27.516 28.2265C26.9812 28.535 26.6668 28.9917 26.4414 29.4521C26.2373 29.8691 26.0561 30.3989 25.8595 30.9736L25.4609 32.1388C25.3353 32.5061 25.2343 32.7989 25.1478 33.034C25.0127 32.8128 24.8511 32.5346 24.6482 32.1835L21.873 27.3806Z" fill="#100C37"/>
</svg>
