<svg width="40" height="36" viewBox="0 0 40 36" fill="none" xmlns="http://www.w3.org/2000/svg">
<path d="M5.34961 11.4873C5.34961 9.83046 6.69276 8.4873 8.34961 8.4873H32.8494C35.8302 8.4873 38.2466 10.9037 38.2466 13.8845C38.2466 22.4011 31.3425 29.3052 22.826 29.3052H19.9705C11.8956 29.3052 5.34961 22.7592 5.34961 14.6843V11.4873Z" fill="#1DC3C3"/>
<path fill-rule="evenodd" clip-rule="evenodd" d="M3.46193 1.77757C3.29203 1.09858 2.60341 0.685761 1.92386 0.855528C1.24431 1.02529 0.831162 1.71335 1.00107 2.39235L2.77982 9.50091L4.43505 16.4016C5.13887 19.336 5.69286 21.6456 6.35026 23.4399C7.0246 25.2804 7.85155 26.7093 9.17832 27.805C9.29283 27.8996 9.40948 27.9915 9.52819 28.0807C10.9038 29.1145 12.4872 29.585 14.4356 29.8113C16.3351 30.0319 18.712 30.0318 21.7318 30.0318H22.7355C25.3483 30.0318 27.405 30.0319 29.062 29.8644C30.7591 29.6929 32.1556 29.3371 33.4122 28.5509C34.0083 28.178 34.5621 27.7416 35.064 27.2493C36.2457 26.0901 36.9469 24.6346 37.5504 22.7472C37.9944 21.359 38.4079 19.6605 38.9055 17.5879L39.0291 17.0727C39.3963 15.5419 39.699 14.2803 39.8159 13.2582C39.9372 12.1974 39.8877 11.1874 39.3578 10.2652C39.1311 9.87073 38.8477 9.51168 38.5167 9.19951C37.7426 8.46963 36.7711 8.1861 35.7105 8.05678C34.6884 7.93217 33.3901 7.9322 31.8146 7.93224L5.00199 7.93224L3.46193 1.77757ZM6.88304 15.7326L5.61995 10.4668H31.7323C33.4107 10.4668 34.5531 10.469 35.4032 10.5727C36.2323 10.6738 36.5723 10.8511 36.7757 11.0428C36.9261 11.1847 37.055 11.3479 37.158 11.5272C37.2972 11.7695 37.3905 12.1412 37.2957 12.9704C37.2095 13.7238 36.9923 14.6817 36.6717 16.0251L24.2157 16.025C23.5152 16.025 22.9474 16.5924 22.9474 17.2923C22.9474 17.9922 23.5152 18.5596 24.2157 18.5596L36.0605 18.5596C35.8255 19.5169 35.6113 20.3536 35.3998 21.0942H29.2889C28.5884 21.0942 28.0206 21.6616 28.0206 22.3615C28.0206 23.0614 28.5884 23.6287 29.2889 23.6287H34.5089C34.1487 24.4106 33.7595 24.9771 33.287 25.4406C32.916 25.8045 32.5067 26.127 32.0661 26.4027C31.2643 26.9043 30.2958 27.1923 28.8067 27.3427C27.2922 27.4958 25.3634 27.4973 22.666 27.4973H21.8126C18.6945 27.4973 16.4646 27.4953 14.7285 27.2937C13.0244 27.0958 11.9349 26.7179 11.0529 26.0551C10.9652 25.9892 10.879 25.9212 10.7943 25.8513C9.94368 25.1488 9.32204 24.1783 8.73228 22.5686C8.1314 20.9286 7.60977 18.7624 6.88304 15.7326Z" fill="#2D264B"/>
<path d="M18.2524 34.1005C18.2524 35.0828 17.4554 35.8791 16.4723 35.8791C15.4892 35.8791 14.6922 35.0828 14.6922 34.1005C14.6922 33.1182 15.4892 32.3218 16.4723 32.3218C17.4554 32.3218 18.2524 33.1182 18.2524 34.1005Z" fill="#2D264B"/>
<path d="M28.9329 34.1005C28.9329 35.0828 28.1359 35.8791 27.1528 35.8791C26.1697 35.8791 25.3727 35.0828 25.3727 34.1005C25.3727 33.1182 26.1697 32.3218 27.1528 32.3218C28.1359 32.3218 28.9329 33.1182 28.9329 34.1005Z" fill="#2D264B"/>
</svg>
