<svg width="40" height="36" viewBox="0 0 40 36" fill="none" xmlns="http://www.w3.org/2000/svg">
<path d="M2.20703 18.0605C2.20703 16.4037 3.55018 15.0605 5.20703 15.0605H34.2972C35.954 15.0605 37.2972 16.4037 37.2972 18.0605V25.6871C37.2972 30.1054 33.7155 33.6871 29.2972 33.6871H10.207C5.78876 33.6871 2.20703 30.1054 2.20703 25.6871V18.0605Z" fill="#1DC3C3"/>
<path d="M21.571 26.8632C20.7404 26.8632 20.0671 27.536 20.0671 28.3659C20.0671 29.1958 20.7404 29.8685 21.571 29.8685H29.5916C30.4222 29.8685 31.0955 29.1958 31.0955 28.3659C31.0955 27.536 30.4222 26.8632 29.5916 26.8632H21.571Z" fill="#2D264B"/>
<path fill-rule="evenodd" clip-rule="evenodd" d="M28.2784 0.958856C26.5452 0.817366 24.3888 0.817374 21.6383 0.817383H17.4934C14.7429 0.817374 12.5865 0.817366 10.8533 0.958856C9.08852 1.10293 7.63056 1.40117 6.31091 2.07302C4.14147 3.17751 2.37766 4.93989 1.27228 7.10757C0.304246 9.0059 0.097029 11.2345 0.0380527 14.3124C0.0156251 15.4829 0.0156251 16.816 0.0156251 18.3367V18.4155C0.0156159 21.1638 0.0156087 23.3184 0.157213 25.0502C0.301404 26.8136 0.599883 28.2703 1.27228 29.5889C2.37766 31.7566 4.14147 33.519 6.31091 34.6235C7.63056 35.2953 9.08852 35.5936 10.8533 35.7376C12.5865 35.8791 14.7428 35.8791 17.4933 35.8791H21.6383C24.3888 35.8791 26.5452 35.8791 28.2784 35.7376C30.0432 35.5936 31.5011 35.2953 32.8208 34.6235C34.9902 33.519 36.754 31.7566 37.8594 29.5889C38.5318 28.2703 38.8303 26.8136 38.9745 25.0502C39.1161 23.3185 39.1161 21.1638 39.1161 18.4156V18.3366C39.1161 16.816 39.1161 15.4829 39.0936 14.3124C39.0347 11.2345 38.8274 9.0059 37.8594 7.10757C36.754 4.93989 34.9902 3.17751 32.8208 2.07302C31.5011 1.40117 30.0432 1.10293 28.2784 0.958856ZM7.67639 4.75075C8.50136 4.33075 9.51945 4.08306 11.0983 3.95417C12.6946 3.82384 14.7284 3.82267 17.5607 3.82267H21.571C24.4033 3.82267 26.4371 3.82384 28.0334 3.95417C29.6122 4.08306 30.6303 4.33075 31.4553 4.75075C33.0588 5.56711 34.3625 6.86974 35.1795 8.47194C35.689 9.47107 35.9328 10.7191 36.0368 12.8385H3.09487C3.19884 10.7191 3.44269 9.47107 3.95218 8.47194C4.76921 6.86974 6.07289 5.56711 7.67639 4.75075ZM3.02335 18.3482C3.02335 17.4371 3.02337 16.6066 3.02796 15.8438H36.1037C36.1083 16.6066 36.1083 17.4371 36.1083 18.3482C36.1083 21.1782 36.1072 23.2104 35.9767 24.8054C35.8478 26.383 35.5999 27.4002 35.1795 28.2246C34.3625 29.8268 33.0588 31.1294 31.4553 31.9457C30.6303 32.3657 29.6122 32.6134 28.0334 32.7423C26.4371 32.8726 24.4033 32.8738 21.571 32.8738H17.5607C14.7284 32.8738 12.6946 32.8726 11.0983 32.7423C9.51945 32.6134 8.50136 32.3657 7.67639 31.9457C6.07289 31.1294 4.76921 29.8268 3.95218 28.2246C3.53184 27.4002 3.28394 26.383 3.15495 24.8054C3.02452 23.2104 3.02335 21.1782 3.02335 18.3482Z" fill="#2D264B"/>
</svg>
