<svg width="38" height="36" viewBox="0 0 38 36" fill="none" xmlns="http://www.w3.org/2000/svg">
<rect x="2.02344" y="9.58203" width="35.0901" height="7.66975" rx="3.83488" fill="#1DC3C3"/>
<path fill-rule="evenodd" clip-rule="evenodd" d="M31.2862 2.4473C32.6955 3.85546 33.1918 5.82897 32.7763 7.63604C35.5932 7.91461 37.7935 10.289 37.7935 13.1769C37.7935 14.7878 37.1089 16.2389 36.0146 17.2556C36.0788 18.2739 36.0788 19.2168 36.0788 21.0833V21.1773C36.0788 23.2292 36.0788 24.8321 35.9945 26.1254C35.9089 27.4389 35.7324 28.524 35.3361 29.5256C34.3453 32.0294 32.4371 34.0374 30.0122 35.0888C29.0359 35.5121 27.9802 35.6991 26.7153 35.7895C25.4738 35.8781 23.9377 35.8781 21.9827 35.8781H16.7387C14.7836 35.8781 13.2474 35.8781 12.0059 35.7895C10.741 35.6991 9.68532 35.5121 8.70903 35.0888C6.28415 34.0374 4.37591 32.0294 3.38512 29.5256C2.98881 28.524 2.81233 27.4389 2.72672 26.1254C2.64241 24.8321 2.64242 23.2294 2.64242 21.1774V21.1315C2.64242 20.3166 2.62617 19.6599 2.61196 19.0854C2.59409 18.3634 2.57944 17.7712 2.60431 17.1581C1.56981 16.1472 0.927734 14.737 0.927734 13.1769C0.927734 10.1992 3.26694 7.76747 6.20936 7.61618C5.80202 5.81452 6.2999 3.85032 7.70403 2.44732C9.88032 0.272798 13.4088 0.272798 15.5851 2.44732L19.2225 6.08178C19.3175 6.1767 19.4083 6.27425 19.4951 6.37421C19.5819 6.27424 19.6727 6.17668 19.7677 6.08175L23.4051 2.4473C25.5814 0.272775 29.1099 0.272775 31.2862 2.4473ZM25.2238 4.26453C26.3957 3.09363 28.2956 3.09363 29.4675 4.26453C30.3719 5.16826 30.5788 6.50713 30.0862 7.60871H21.877L25.2238 4.26453ZM13.7664 4.26455L17.1132 7.60871H8.90404C8.41145 6.50713 8.61828 5.16827 9.52273 4.26455C10.6946 3.09365 12.5945 3.09365 13.7664 4.26455ZM3.49976 13.1769C3.49976 11.521 4.84322 10.1787 6.50047 10.1787H18.0746V16.1752H6.50047C4.84322 16.1752 3.49976 14.8328 3.49976 13.1769ZM20.6466 32.8799L20.6466 18.7451H32.2208C32.6589 18.7451 33.0853 18.6946 33.4943 18.5991C33.5066 19.231 33.5068 20.0006 33.5068 21.1315C33.5068 23.2391 33.5061 24.7583 33.4279 25.9584C33.3504 27.1481 33.2006 27.9329 32.9443 28.5806C32.1947 30.4747 30.7649 31.9609 28.9883 32.7312C28.3891 32.9911 27.6583 33.1456 26.532 33.2261C25.3928 33.3074 23.9484 33.3082 21.9326 33.3082H20.5735C20.6208 33.1742 20.6466 33.03 20.6466 32.8799ZM18.0746 32.8799V18.7451H6.50047C6.04314 18.7451 5.59867 18.6901 5.17335 18.5863L5.17969 18.8234C5.19513 19.393 5.21445 20.106 5.21445 21.1315C5.21445 23.2391 5.21509 24.7583 5.29331 25.9584C5.37085 27.1481 5.52068 27.9329 5.77698 28.5806C6.52649 30.4747 7.95631 31.9609 9.73289 32.7312C10.3321 32.9911 11.0629 33.1456 12.1893 33.2261C13.3284 33.3074 14.7728 33.3082 16.7886 33.3082H18.1478C18.1004 33.1742 18.0746 33.03 18.0746 32.8799ZM35.2215 13.1769C35.2215 11.521 33.878 10.1787 32.2208 10.1787H20.6466V16.1752H32.2208C33.878 16.1752 35.2215 14.8328 35.2215 13.1769Z" fill="#100C37"/>
</svg>
